<?xml version="1.0" encoding="UTF-8"?>
<svg width="788px" height="788px" viewBox="0 0 788 788" version="1.1" xmlns="http://www.w3.org/2000/svg" xmlns:xlink="http://www.w3.org/1999/xlink">
    <!-- Generator: Sketch 50.2 (55047) - http://www.bohemiancoding.com/sketch -->
    <title>Untitled</title>
    <desc>Created with Sketch.</desc>
    <defs>
      <linearGradient id="gradient" x1="0%" y1="100%" x2="100%" y2="0%">
      <stop offset="0%" style="stop-color:#1C9FFF;stop-opacity:1"/>
      <stop offset="100%" style="stop-color:#765EE7;stop-opacity:1"/>
      </linearGradient>
    </defs>
    <g id="Page-1" stroke="none" stroke-width="1" fill="none" fill-rule="evenodd">
        <g id="macos" fill="url('#gradient')" fill-rule="nonzero">
            <path d="M433.651556,261.489481 L433.651556,255.004148 L413.493926,256.388444 C407.786074,256.74874 403.500445,257.96237 400.618074,260.01037 C397.803303,261.946516 396.172636,265.186396 396.294519,268.600593 C396.294519,272.16563 397.716741,275.010074 400.580148,277.114963 C403.424592,279.238815 407.255111,280.281778 412.033778,280.281778 C415.086815,280.281778 417.950222,279.807704 420.586074,278.878519 C423.221926,277.949334 425.535407,276.640889 427.46963,274.972148 C431.424659,271.61473 433.68853,266.677269 433.651556,261.489481 Z M394,0.407407 C174.427852,0.407407 0.518519,174.316741 0.518519,393.888889 C0.518519,613.48 174.427852,787.37037 394,787.37037 C613.572148,787.37037 787.481481,613.48 787.481481,393.888889 C787.481481,174.316741 613.591111,0.407408 394,0.407407 Z M470.382815,233.632889 C472.241185,228.418074 474.858074,223.942815 478.252444,220.226074 C481.646814,216.509333 485.723851,213.645926 490.502519,211.635852 C495.281186,209.625778 500.609778,208.620741 506.469333,208.620741 C511.76,208.620741 516.538666,209.417185 520.78637,210.991111 C525.053037,212.565037 528.693926,214.688889 531.746963,217.362667 C534.8,220.036445 537.227259,223.146371 539.009778,226.711407 C540.792297,230.276444 541.854222,234.050074 542.214519,238.013333 L526.41837,238.013333 C526.020148,235.832592 525.299555,233.784592 524.275556,231.907259 C523.251557,230.029926 521.905186,228.399111 520.236444,227.014815 C518.47398,225.588962 516.470123,224.490694 514.32,223.772148 C511.84484,222.949038 509.248047,222.551505 506.64,222.596444 C503.283556,222.596444 500.230519,223.279111 497.518815,224.625481 C494.782435,225.97935 492.389685,227.937643 490.521481,230.352296 C488.474366,233.047957 486.950033,236.103056 486.027259,239.359704 C484.909253,243.189932 484.366048,247.164912 484.415407,251.154667 C484.415407,255.629926 484.94637,259.650074 486.027259,263.177185 C487.089185,266.723259 488.606222,269.700444 490.57837,272.146667 C492.531555,274.592889 494.901926,276.470223 497.651556,277.759704 C500.401186,279.049185 503.43526,279.712889 506.734815,279.712889 C512.139259,279.712889 516.538667,278.44237 519.952,275.901333 C523.365333,273.360296 525.565037,269.643555 526.589037,264.751111 L542.404148,264.751111 C541.949037,269.074667 540.75437,273.018963 538.820148,276.584 C536.885926,280.149037 534.382815,283.183111 531.310815,285.705185 C528.219852,288.227259 524.597926,290.180444 520.426074,291.545778 C516.254222,292.911112 511.665185,293.612741 506.677926,293.612741 C500.761482,293.612741 495.432889,292.626667 490.635259,290.673481 C485.965782,288.793396 481.764959,285.913017 478.328296,282.234963 C474.795261,278.374221 472.10255,273.821796 470.420741,268.866074 C468.487815,263.158022 467.545047,257.161506 467.633185,251.135704 C467.524471,245.185896 468.454974,239.262762 470.382815,233.632889 Z M245.614815,209.70163 L261.429926,209.70163 L261.429926,223.753185 L261.733333,223.753185 C263.573344,219.23104 266.782763,215.398304 270.911407,212.792593 C272.987847,211.470614 275.250576,210.467087 277.624296,209.815407 C280.138319,209.124286 282.734958,208.779769 285.342222,208.791407 C291.144889,208.791407 296.056296,210.175703 300.038519,212.944296 C304.039704,215.712889 306.884149,219.695111 308.552889,224.890963 L308.951111,224.890963 C310.013037,222.387852 311.416296,220.150222 313.141926,218.178074 C316.660993,214.14965 321.303029,211.26406 326.472889,209.891259 C329.222977,209.144368 332.061751,208.774371 334.911407,208.791407 C338.988444,208.791407 342.686222,209.436148 346.023704,210.744593 C349.361185,212.053037 352.20563,213.873482 354.576,216.243852 C356.94637,218.614222 358.766815,221.496593 360.037333,224.872 C361.307852,228.247407 361.952592,232.002074 361.952593,236.136 L361.952593,292.664593 L345.454815,292.664593 L345.454815,240.099259 C345.454815,234.656889 344.051556,230.428148 341.245037,227.450963 C338.457481,224.473778 334.456296,222.975704 329.260444,222.975704 C326.861342,222.951042 324.481762,223.408902 322.263111,224.322074 C320.200097,225.177882 318.339579,226.456988 316.801778,228.076741 C315.228598,229.735436 314.009216,231.696769 313.217778,233.841481 C312.326584,236.184367 311.882762,238.67363 311.909333,241.180148 L311.909333,292.664593 L295.639111,292.664593 L295.639111,238.733926 C295.639111,236.344593 295.259852,234.182815 294.520296,232.248593 C293.117609,228.471577 290.130758,225.498586 286.347259,224.113481 C284.22678,223.344398 281.984636,222.965354 279.729185,222.994667 C277.298326,222.972944 274.889542,223.457284 272.656,224.416889 C268.335789,226.267978 264.996513,229.855119 263.458963,234.296593 C262.624593,236.572149 261.259259,239.07526 261.259259,241.768 L261.259259,292.64563 L245.614815,292.64563 L245.614815,209.70163 Z M281.511704,606.767111 C208.978371,606.767111 163.486223,556.363555 163.486222,475.922667 C163.486222,395.481778 208.97837,344.907556 281.511704,344.907556 C354.045038,344.907556 399.366519,395.481778 399.366519,475.922667 C399.366519,556.344593 354.045038,606.767111 281.511704,606.767111 Z M415.807407,292.456 C413.124194,293.140331 410.365545,293.484366 407.596444,293.48 C403.462518,293.48 399.688888,292.892148 396.256593,291.716444 C393.008422,290.65488 389.99981,288.966965 387.400889,286.748148 C384.935069,284.615712 382.967213,281.968168 381.636148,278.992296 C380.223056,275.806056 379.517858,272.351231 379.569185,268.866074 C379.569185,261.584296 382.280889,255.895407 387.704296,251.799407 C393.127703,247.703407 400.97837,245.314074 411.275259,244.65037 L433.651556,243.360889 L433.651556,236.951407 C433.651556,232.17274 432.134519,228.512888 429.100444,226.028741 C426.06637,223.544593 421.78074,222.293037 416.224593,222.293037 C414.10384,222.279748 411.991485,222.560545 409.947852,223.127407 C408.120305,223.643002 406.39039,224.456703 404.827852,225.535704 C401.901398,227.566337 399.875888,230.652182 399.176889,234.144889 L383.665185,234.144889 C383.76,230.485037 384.670222,227.090667 386.376889,223.980741 C388.083556,220.870815 390.397037,218.178074 393.336296,215.883556 C396.275555,213.589038 399.707852,211.806519 403.690074,210.536 C407.672296,209.265481 411.995852,208.620741 416.679704,208.620741 C421.723852,208.620741 426.293926,209.246519 430.389926,210.536 C434.485926,211.825481 437.994074,213.626963 440.895407,215.997333 C443.79674,218.367703 446.03437,221.212148 447.608296,224.54963 C449.182222,227.887111 449.978666,231.622815 449.978667,235.737778 L449.978667,292.64563 L434.182519,292.64563 L434.182519,278.82163 L433.784296,278.82163 C432.608592,281.05926 431.129481,283.088297 429.328,284.889778 C425.602072,288.606414 420.92394,291.224331 415.807407,292.456 Z M520.160593,606.767111 C464.84563,606.767111 427.242074,577.791704 424.625185,532.299556 L460.635852,532.299556 C463.442371,558.297778 488.568296,575.516149 522.986074,575.516148 C556.000593,575.516148 579.723259,558.297778 579.723259,534.764741 C579.723259,514.398519 565.311407,502.091556 531.955556,493.672 L499.453037,485.593778 C452.728296,474.007408 431.489778,452.749926 431.489778,417.801185 C431.489778,374.774222 469.074371,344.907555 522.644741,344.907556 C574.982519,344.907556 611.505185,374.944889 612.908444,418.142519 L577.258074,418.142519 C574.792889,392.144297 553.55437,376.158519 521.924148,376.158519 C490.483555,376.158519 468.714074,392.314963 468.714074,415.677333 C468.714074,434.109333 482.405333,445.013037 515.780148,453.432593 L543.18163,460.278222 C595.348741,472.926518 616.776889,493.48237 616.776889,530.365333 C616.757926,577.431407 579.53363,606.767111 520.160593,606.767111 Z M281.511704,377.201481 C231.809778,377.201481 200.729482,415.317037 200.729481,475.903704 C200.729481,536.319704 231.809777,574.43526 281.511704,574.435259 C331.042963,574.435259 362.293926,536.319703 362.293926,475.903704 C362.312889,415.317037 331.042963,377.201482 281.511704,377.201481 Z" id="Shape"></path>
        </g>
    </g>
</svg>
