<?xml version="1.0" standalone="no"?>
<!DOCTYPE svg PUBLIC "-//W3C//DTD SVG 1.1//EN" "http://www.w3.org/Graphics/SVG/1.1/DTD/svg11.dtd">
<svg t="1535282767382" class="icon" style="" viewBox="0 0 1024 1024" version="1.1" xmlns="http://www.w3.org/2000/svg" p-id="6434" xmlns:xlink="http://www.w3.org/1999/xlink" width="200" height="200">
  <defs>
    <linearGradient id="gradient" x1="0%" y1="100%" x2="100%" y2="0%">
    <stop offset="0%" style="stop-color:#1C9FFF;stop-opacity:1"/>
    <stop offset="100%" style="stop-color:#765EE7;stop-opacity:1"/>
    </linearGradient>
  </defs>
  <path
    fill="url(#gradient)"
    d="M793.6 153.6c43.52 0 76.8 33.28 76.8 76.8s-33.28 76.8-76.8 76.8h-76.8V230.4c0-43.52 33.28-76.8 76.8-76.8M230.4 153.6c43.52 0 76.8 33.28 76.8 76.8v76.8H230.4c-43.52 0-76.8-33.28-76.8-76.8s33.28-76.8 76.8-76.8m384 256v204.8h-204.8v-204.8h204.8m179.2 307.2c43.52 0 76.8 33.28 76.8 76.8s-33.28 76.8-76.8 76.8-76.8-33.28-76.8-76.8v-76.8h76.8m-486.4 0v76.8c0 43.52-33.28 76.8-76.8 76.8s-76.8-33.28-76.8-76.8 33.28-76.8 76.8-76.8h76.8M793.6 51.2c-99.84 0-179.2 79.36-179.2 179.2v76.8h-204.8V230.4c0-99.84-79.36-179.2-179.2-179.2S51.2 130.56 51.2 230.4s79.36 179.2 179.2 179.2h76.8v204.8H230.4c-99.84 0-179.2 79.36-179.2 179.2s79.36 179.2 179.2 179.2 179.2-79.36 179.2-179.2v-76.8h204.8v76.8c0 99.84 79.36 179.2 179.2 179.2s179.2-79.36 179.2-179.2-79.36-179.2-179.2-179.2h-76.8v-204.8h76.8c99.84 0 179.2-79.36 179.2-179.2s-79.36-179.2-179.2-179.2z"
    p-id="6435"></path>
</svg>
