<?xml version="1.0" standalone="no"?>
<!DOCTYPE svg PUBLIC "-//W3C//DTD SVG 1.1//EN" "http://www.w3.org/Graphics/SVG/1.1/DTD/svg11.dtd">
<svg t="1535282743445" class="icon" style="" viewBox="0 0 1152 1024" version="1.1" xmlns="http://www.w3.org/2000/svg" p-id="5773" xmlns:xlink="http://www.w3.org/1999/xlink" width="225" height="200">
  <defs>
    <linearGradient id="gradient" x1="0%" y1="100%" x2="100%" y2="0%">
    <stop offset="0%" style="stop-color:#1C9FFF;stop-opacity:1"/>
    <stop offset="100%" style="stop-color:#765EE7;stop-opacity:1"/>
    </linearGradient>
  </defs>
  <path
    fill="url(#gradient)"
    d="M639.816653 378.105089a41.588082 41.588082 0 1 0 39.98854 41.588083 40.948266 40.948266 0 0 0-39.98854-41.588083z m-127.963331 0a41.588082 41.588082 0 1 0 39.988541 41.588083 40.948266 40.948266 0 0 0-39.988541-41.588083zM435.71514 480.155845a41.588082 41.588082 0 1 0 39.988541 41.588083 40.948266 40.948266 0 0 0-39.988541-41.588083z m696.120518-214.01867l-5.118533-5.438441L851.915873 12.769781A47.666341 47.666341 0 0 0 814.16669 0.293356a50.545516 50.545516 0 0 0-38.708907 31.990833 198.343162 198.343162 0 0 1-109.408648 101.091031 220.416837 220.416837 0 0 1-147.15783 7.037983 217.217754 217.217754 0 0 1-127.96333-88.294698 222.016378 222.016378 0 0 1-12.156517-23.0334 51.505241 51.505241 0 0 0-6.398166-9.597249A47.666341 47.666341 0 0 0 303.91291 12.769781L25.592666 260.698734l-5.118533 5.438441a95.972498 95.972498 0 0 0-18.234775 79.017357c8.637525 42.227899 43.827441 78.37754 103.010481 106.849381 0 0 47.666341 24.632941 70.69974 35.829732l16.955142 7.6778a162.193521 162.193521 0 0 1 24.632941 11.836608c-15.675508 109.728556-33.910283 345.181084-34.550099 351.899159a95.972498 95.972498 0 0 0 25.272757 71.979373c51.825149 62.702032 173.390313 92.773415 371.413567 92.773415s314.469885-29.751474 366.614942-91.493781a95.972498 95.972498 0 0 0 25.592666-70.059924c0-9.917158-18.874591-244.72987-34.230191-355.41815a156.115263 156.115263 0 0 1 23.993125-11.836608l16.955141-7.6778c22.393583-11.196791 68.460382-35.189916 68.460382-35.189916 59.822857-29.111658 94.372956-63.981665 103.010481-107.169289a95.972498 95.972498 0 0 0-18.234775-79.017357zM720.753459 663.463316a294.31566 294.31566 0 0 1-99.811398 8.637525c-8.957433 0-27.512116 12.476425-27.512116 39.988541s18.554683 15.3556 18.554683 54.064507-41.268174 37.749182-41.268174 37.749183c-165.392605 0-223.935828-154.195813-223.935828-239.931245s62.062215-238.331703 230.014086-238.331703a228.734453 228.734453 0 0 1 230.014087 212.09922 138.200397 138.200397 0 0 1-86.05534 125.723972z m-45.746891-140.439755A39.988541 39.988541 0 1 0 714.995109 480.155845a40.948266 40.948266 0 0 0-39.988541 42.867716z"
    p-id="5774"></path>
</svg>
